<?xml version="1.0" standalone="no"?>
<!DOCTYPE svg PUBLIC "-//W3C//DTD SVG 20010904//EN"
 "http://www.w3.org/TR/2001/REC-SVG-20010904/DTD/svg10.dtd">
<svg version="1.0" xmlns="http://www.w3.org/2000/svg"
 width="300.000000pt" height="103.000000pt" viewBox="0 0 300.000000 103.000000"
 preserveAspectRatio="xMidYMid meet">
<metadata>
Created by potrace 1.10, written by Peter Selinger 2001-2011
</metadata>
<g transform="translate(0.000000,103.000000) scale(0.100000,-0.100000)"
fill="#000000" stroke="none">
<path d="M130 685 l0 -345 1148 0 1147 0 -3 345 -3 345 -377 -5 c-917 -12
-1856 -15 -1866 -5 -5 5 -18 10 -28 10 -17 0 -18 -19 -18 -345z m1512 293 c-8
-8 -12 -51 -12 -129 0 -65 -4 -120 -10 -124 -5 -3 -17 -1 -27 4 -10 5 -26 12
-35 15 -10 3 -18 13 -18 22 0 10 -7 26 -17 36 -35 39 -93 9 -93 -48 0 -32 -1
-33 -25 -22 -18 8 -35 8 -68 -2 -32 -8 -50 -9 -64 -1 -24 12 -99 7 -118 -9
-10 -8 -21 -7 -44 4 -38 20 -64 20 -107 0 -30 -14 -35 -14 -56 0 -30 21 -56
20 -101 -3 -20 -10 -40 -15 -42 -10 -3 5 -23 14 -44 20 -32 9 -44 8 -74 -6
-33 -15 -37 -15 -61 0 -53 35 -137 -6 -156 -76 -6 -22 -15 -37 -20 -34 -15 9
-12 41 5 55 25 21 18 74 -13 108 -22 24 -40 32 -84 37 -100 13 -147 -9 -128
-59 13 -35 13 -157 0 -192 -8 -21 -7 -31 6 -45 21 -24 76 -25 109 -3 23 15 27
15 51 -1 19 -12 38 -16 68 -12 22 3 58 1 79 -5 31 -9 44 -8 74 6 25 12 39 14
46 7 15 -15 103 -14 126 1 15 9 26 8 54 -5 44 -21 66 -21 96 -1 21 15 26 15
50 2 20 -11 51 -14 134 -10 98 4 109 6 126 28 l18 23 23 -24 c30 -32 72 -40
111 -21 22 11 37 13 49 6 10 -6 40 -9 67 -9 111 2 109 4 116 -73 l5 -48 -734
0 -734 0 0 305 0 305 742 0 c577 0 739 -3 730 -12z m748 -293 l0 -305 -365 0
-365 0 0 305 0 305 365 0 365 0 0 -305z m-882 55 c-1 -33 -1 -59 2 -57 55 31
62 32 81 8 14 -17 19 -39 19 -86 0 -41 4 -65 13 -68 6 -3 -8 -6 -32 -6 -40 -1
-43 0 -27 12 16 11 18 24 14 70 -5 67 -9 71 -43 63 -24 -6 -25 -10 -25 -70 0
-53 3 -65 18 -69 9 -3 -5 -5 -33 -5 -27 0 -44 2 -37 5 8 3 12 37 12 119 0 102
-2 114 -17 115 -12 0 -8 5 12 14 17 8 34 14 38 15 5 0 7 -27 5 -60z m-1100 31
c30 -16 38 -55 18 -86 -9 -14 -23 -25 -31 -25 -8 0 -15 -4 -15 -9 0 -16 72
-103 93 -111 18 -7 16 -9 -16 -9 -34 -1 -40 4 -80 59 -53 74 -67 76 -67 10 0
-43 3 -52 23 -60 16 -6 6 -9 -43 -9 -49 0 -59 3 -42 9 21 9 22 15 22 120 0
103 -1 110 -20 110 -11 0 -20 5 -20 10 0 14 149 6 178 -9z m210 -78 c12 -10
22 -27 24 -38 3 -18 -3 -20 -55 -20 -62 0 -71 -11 -41 -53 20 -29 69 -30 84
-1 7 11 14 18 17 15 9 -8 -24 -54 -47 -66 -47 -25 -100 21 -100 87 0 76 68
119 118 76z m162 -23 l-1 -35 -15 28 c-11 20 -22 27 -37 25 -28 -4 -34 -34 -8
-43 10 -3 31 -15 45 -26 55 -43 15 -107 -58 -93 -31 5 -36 10 -36 35 0 35 11
38 25 7 7 -15 19 -23 35 -23 38 0 37 31 -2 54 -65 39 -72 57 -38 91 14 14 31
19 55 17 33 -2 35 -4 35 -37z m158 23 c12 -10 22 -27 24 -38 3 -18 -3 -20 -55
-20 -50 0 -57 -2 -57 -19 0 -50 66 -74 94 -34 21 30 33 15 12 -16 -25 -39 -52
-50 -87 -35 -37 15 -49 36 -49 89 0 73 69 115 118 73z m160 1 c19 -13 22 -24
22 -79 0 -57 2 -64 18 -59 12 4 10 -1 -8 -16 -21 -19 -26 -19 -35 -7 -9 13
-14 13 -38 1 -58 -31 -94 34 -41 75 14 11 35 23 45 26 28 9 21 49 -8 53 -16 2
-22 -3 -25 -20 -3 -24 -28 -32 -35 -11 -6 18 34 53 60 53 12 0 33 -7 45 -16z
m112 -1 c0 -14 2 -14 20 2 16 14 22 15 35 5 18 -15 10 -32 -13 -28 -32 5 -42
-12 -42 -72 0 -47 3 -59 18 -63 9 -3 -5 -5 -33 -5 -27 0 -44 2 -37 5 8 3 12
28 12 74 0 48 -4 69 -12 69 -13 1 30 29 45 30 4 0 7 -7 7 -17z m198 1 c12 -8
22 -22 22 -30 0 -22 -37 -17 -43 6 -12 47 -67 12 -67 -42 0 -57 65 -91 92 -48
20 32 30 23 13 -10 -28 -54 -98 -60 -124 -11 -15 27 -14 94 2 113 30 38 70 46
105 22z"/>
<path d="M2285 784 c-18 -8 -23 -13 -12 -14 15 0 17 -12 17 -114 0 -82 -4
-116 -12 -119 -7 -3 7 -6 31 -6 38 -1 42 1 28 12 -14 10 -17 34 -19 133 l-3
121 -30 -13z"/>
<path d="M1706 759 c-8 -41 0 -50 13 -15 10 24 15 26 66 26 30 0 55 -2 55 -5
0 -3 -36 -55 -80 -117 l-80 -113 102 -3 c109 -3 118 1 117 48 0 24 -1 24 -9 4
-12 -31 -24 -36 -97 -40 -50 -3 -63 -1 -57 8 4 7 43 62 86 121 43 59 78 109
78 110 0 1 -42 3 -94 5 l-93 3 -7 -32z"/>
<path d="M1954 687 c-49 -43 -31 -150 26 -157 44 -6 90 24 90 59 0 11 -5 9
-16 -7 -30 -43 -104 -16 -104 39 0 13 11 16 60 15 68 -2 76 9 35 49 -30 31
-56 32 -91 2z m64 -9 c21 -21 13 -28 -28 -28 -38 0 -40 2 -30 20 12 22 40 26
58 8z"/>
<path d="M2122 694 c-23 -16 -29 -39 -12 -49 6 -3 15 6 20 20 12 32 53 32 58
0 2 -16 -7 -25 -38 -39 -43 -19 -64 -45 -54 -71 11 -27 38 -35 67 -20 17 9 27
10 29 3 5 -13 58 -2 58 12 0 5 -7 7 -15 4 -12 -5 -15 6 -15 65 0 68 -1 72 -26
81 -35 14 -46 13 -72 -6z m56 -135 c-26 -17 -48 -10 -48 16 0 16 9 29 28 39
27 14 27 14 30 -16 2 -18 -2 -34 -10 -39z"/>
<path d="M310 715 c0 -61 14 -70 58 -39 45 32 21 94 -37 94 -19 0 -21 -6 -21
-55z"/>
<path d="M542 678 c-20 -20 -14 -28 24 -28 28 0 35 3 32 18 -4 21 -39 27 -56
10z"/>
<path d="M862 678 c-20 -20 -14 -28 24 -28 28 0 35 3 32 18 -4 21 -39 27 -56
10z"/>
<path d="M1046 608 c-33 -28 -31 -58 4 -58 24 0 33 17 28 56 l-3 28 -29 -26z"/>
<path d="M2716 644 c-11 -25 -7 -106 5 -119 6 -6 16 -2 27 9 16 18 16 19 0 13
-15 -5 -18 0 -18 33 0 25 5 40 13 40 8 0 9 3 1 8 -6 4 -13 14 -16 21 -3 12 -6
10 -12 -5z"/>
<path d="M2499 627 c0 -1 -1 -23 -2 -50 -2 -41 0 -47 18 -47 18 0 20 5 17 40
-3 33 -1 40 13 40 14 0 16 -7 13 -40 -3 -37 -2 -40 22 -40 15 0 20 3 13 8 -6
4 -13 25 -15 47 -3 39 -4 40 -40 42 -21 1 -38 1 -39 0z"/>
<path d="M2623 622 c-6 -4 -14 -19 -18 -34 -5 -20 -1 -32 15 -48 19 -19 24
-20 43 -7 11 7 23 20 25 28 4 11 2 12 -9 2 -18 -18 -46 -16 -53 3 -9 24 -9 24
29 24 37 0 43 8 23 28 -14 14 -37 15 -55 4z"/>
<path d="M368 243 c16 -6 16 -85 0 -101 -9 -9 -7 -12 9 -12 18 0 20 5 17 48
l-4 47 21 -45 c16 -36 22 -42 29 -29 7 11 3 30 -10 58 -17 34 -25 41 -48 40
-15 0 -21 -3 -14 -6z"/>
<path d="M460 224 c-14 -36 -12 -43 5 -14 l14 25 1 -33 c0 -18 -4 -41 -10 -51
-8 -15 -6 -17 13 -14 20 4 22 9 18 50 -2 31 1 48 10 54 10 6 6 9 -14 9 -20 0
-30 -7 -37 -26z"/>
<path d="M618 195 c2 -30 8 -55 13 -55 5 0 9 8 9 18 1 16 1 16 14 0 14 -18 36
-24 36 -10 0 4 -6 14 -12 20 -10 10 -10 17 0 32 10 17 10 20 -4 20 -8 0 -13
-4 -10 -9 3 -5 -1 -14 -9 -21 -13 -11 -15 -7 -15 24 0 22 -5 36 -12 36 -9 0
-12 -16 -10 -55z"/>
<path d="M908 243 c14 -6 17 -89 2 -98 -5 -3 -10 1 -10 9 0 9 -4 16 -10 16
-16 0 -11 -27 6 -34 32 -12 52 11 56 64 3 50 3 50 -27 49 -16 0 -24 -3 -17 -6z"/>
<path d="M1529 198 c-12 -29 -25 -56 -27 -60 -2 -5 4 -8 13 -8 10 0 15 7 13
18 -2 11 4 18 20 20 14 2 22 -2 22 -11 0 -8 9 -17 20 -20 11 -3 20 -4 20 -2 0
6 -52 115 -54 115 -2 0 -14 -24 -27 -52z"/>
<path d="M2220 228 c0 -13 4 -29 9 -36 6 -10 10 -8 14 10 10 36 8 48 -8 48 -9
0 -15 -9 -15 -22z"/>
<path d="M543 213 c-15 -6 -17 -33 -3 -33 6 0 10 8 10 17 0 23 13 8 17 -20 5
-34 12 -49 21 -43 12 7 2 69 -12 78 -12 9 -16 9 -33 1z"/>
<path d="M712 208 c-18 -18 -15 -56 6 -66 19 -10 42 -5 42 9 0 4 -6 6 -14 3
-7 -3 -16 2 -19 10 -5 11 0 16 14 16 14 0 19 5 17 17 -4 22 -29 28 -46 11z"/>
<path d="M780 205 c-9 -11 -7 -18 9 -32 27 -22 27 -37 1 -23 -11 6 -20 7 -20
1 0 -17 33 -22 49 -7 13 14 12 18 -9 41 -23 24 -16 37 8 13 9 -9 12 -9 12 3 0
19 -35 22 -50 4z"/>
<path d="M982 208 c-32 -32 9 -96 44 -67 26 22 11 79 -21 79 -6 0 -16 -5 -23
-12z m36 -39 c-1 -13 -7 -23 -13 -22 -13 3 -18 30 -11 50 10 24 29 1 24 -28z"/>
<path d="M1060 182 c0 -43 9 -51 48 -44 20 4 23 10 20 40 -4 49 -28 55 -28 8
0 -20 -5 -36 -11 -36 -6 0 -9 14 -7 32 2 18 -2 33 -9 35 -9 3 -13 -8 -13 -35z"/>
<path d="M1155 176 c0 -49 20 -54 27 -7 5 34 0 51 -15 51 -7 0 -12 -17 -12
-44z"/>
<path d="M1230 179 c0 -26 4 -39 13 -39 9 0 12 10 9 30 -3 18 0 30 7 30 6 0
11 -13 11 -30 0 -20 5 -30 15 -30 11 0 13 8 8 33 -7 40 -7 40 -38 43 -23 2
-25 -1 -25 -37z"/>
<path d="M1327 199 c-27 -38 9 -87 41 -55 13 12 12 14 -4 13 -14 -2 -20 6 -22
27 -2 18 0 26 7 21 6 -3 9 -11 6 -16 -4 -5 1 -9 9 -9 19 0 21 11 4 28 -17 17
-25 15 -41 -9z"/>
<path d="M1400 179 c20 -39 20 -54 -1 -54 -5 0 -9 -4 -9 -10 0 -15 22 -12 31
5 5 8 17 34 28 58 15 34 16 42 5 42 -8 0 -14 -11 -15 -27 l-1 -28 -11 28 c-6
16 -19 27 -29 27 -17 0 -17 -2 2 -41z"/>
<path d="M1617 183 c22 -47 22 -48 29 -41 3 3 2 22 -1 42 -5 26 -12 36 -26 36
-18 0 -18 -1 -2 -37z"/>
<path d="M1667 173 l16 -48 18 40 c21 48 22 55 9 55 -5 0 -10 -10 -10 -22 0
-18 -2 -20 -9 -8 -6 8 -7 18 -5 22 3 4 -4 8 -15 8 -19 0 -19 -1 -4 -47z"/>
<path d="M1746 204 c-9 -8 -16 -24 -16 -34 0 -23 31 -42 49 -31 10 6 9 10 -3
14 -23 9 -20 27 4 27 18 0 19 3 10 20 -13 24 -23 25 -44 4z"/>
<path d="M1813 204 c-3 -8 2 -23 11 -33 18 -20 22 -41 4 -23 -14 14 -28 16
-28 3 0 -11 30 -19 48 -14 17 6 15 28 -3 43 -8 7 -15 17 -15 22 0 6 7 5 15 -2
12 -10 15 -10 15 2 0 19 -40 21 -47 2z"/>
<path d="M1886 204 c-9 -8 -16 -22 -16 -29 0 -15 26 -45 39 -45 11 0 41 35 41
48 0 13 -28 42 -40 42 -5 0 -16 -7 -24 -16z m34 -24 c0 -16 -4 -30 -10 -30 -5
0 -10 14 -10 30 0 17 5 30 10 30 6 0 10 -13 10 -30z"/>
<path d="M1965 180 c0 -25 5 -40 13 -40 7 0 12 13 12 30 0 17 5 30 10 30 6 0
10 -13 10 -30 0 -18 5 -30 13 -30 10 0 12 10 8 37 -6 33 -10 38 -37 40 -29 2
-30 1 -29 -37z"/>
<path d="M2049 215 c-3 -2 -3 -20 -1 -40 5 -40 32 -50 32 -11 0 42 -16 67 -31
51z"/>
<path d="M2106 198 c-25 -35 12 -84 41 -55 14 14 14 15 -2 14 -10 -1 -20 4
-22 11 -3 7 4 12 16 12 24 0 27 10 9 28 -17 17 -25 15 -42 -10z"/>
</g>
</svg>
